# xmcd
#
# Track frame offsets:
#	150
#	23327
#	45535
#	64982
#	83676
#	103359
#	115945
#	141013
#	159121
#	197466
#	212936
#	234775
#	256597
#	279618
#	299712
#
# Disc length: 4293 seconds
#
# Revision: 0
# Processed by: cddbd v1.5.1PL0 Copyright (c) Steve Scherf et al.
# Submitted via: audiograbber 1.83.01
#
DISCID=cc10c30f
DTITLE=Various Artist - Best of Unplugged
DYEAR=2004
DGENRE=Pop
TTITLE0=Sting - Every breath you take
TTITLE1=Chris Isaak - Wicked Game
TTITLE2=The Cranberries - Zombie
TTITLE3=R.E.M. - Imitation of Life
TTITLE4=Eric Clapton - Lay
TTITLE5=Crowded House - Four Seasons in One Day
TTITLE6=Tori Amos - Cornflake Girl
TTITLE7=Rod Stewart - Have I told you lately
TTITLE8=Bob Dylan - Like a rolling stone
TTITLE9=Björk - Human Behaviour
TTITLE10=Seal - Crazy
TTITLE11=Midnight Oil - Beds are burning
TTITLE12=Sheryl Crow - Run baby run
TTITLE13=Bryan Adams - I'm ready
TTITLE14=Phil Collinso - In the air tonight
EXTD=
EXTT0=
EXTT1=
EXTT2=
EXTT3=
EXTT4=
EXTT5=
EXTT6=
EXTT7=
EXTT8=
EXTT9=
EXTT10=
EXTT11=
EXTT12=
EXTT13=
EXTT14=
PLAYORDER=
